<svg width="37" height="50" viewBox="0 0 37 50" fill="none" xmlns="http://www.w3.org/2000/svg">
<path d="M36.7472 21.5143V2.72634C36.7472 2.72634 36.7472 0.820312 34.9006 0.820312H16.6984C16.6984 0.820312 14.8518 0.820313 14.8518 2.72634V19.6083C14.8518 21.6504 13.269 23.2842 11.4224 23.2842H2.18944C2.18944 23.2842 0.210938 23.2842 0.210938 25.3263V36.3541C0.210938 36.3541 0.210938 38.3962 2.18944 38.3962H11.1586C13.1371 38.3962 14.8518 40.03 14.8518 42.2083V47.6541C14.8518 47.6541 14.8518 49.8324 16.9622 49.8324H20.1278C20.1278 49.8324 22.2382 49.8324 22.2382 47.6541V42.2083C22.2382 40.1661 23.821 38.5324 25.7995 38.3962H27.6461C27.6461 38.3962 29.6246 38.3962 29.6246 36.3541V32.9504C29.6246 32.9504 29.6246 30.9083 27.6461 30.9083H24.2167C24.2167 30.9083 22.2382 30.9083 22.2382 32.9504V34.7203C22.2382 36.7625 20.5235 38.3962 18.545 38.3962C16.5665 38.3962 14.8518 36.7625 14.8518 34.5842V27.0962C14.8518 25.0541 16.4346 23.2842 18.545 23.2842H34.9006C34.9006 23.4203 36.7472 23.4203 36.7472 21.5143Z" fill="url(#paint0_linear_159_663)"/>
<defs>
<linearGradient id="paint0_linear_159_663" x1="35.9839" y1="1.20451" x2="4.90867" y2="41.157" gradientUnits="userSpaceOnUse">
<stop stop-color="#F6C755"/>
<stop offset="0.2742" stop-color="#F3BF4F"/>
<stop offset="0.6697" stop-color="#EEAD42"/>
<stop offset="0.8015" stop-color="#ECA53C"/>
</linearGradient>
</defs>
</svg>
