<svg width="36" height="36" viewBox="0 0 36 36" fill="none" xmlns="http://www.w3.org/2000/svg">
<path d="M33.5295 28.2712L20.1251 35.1411C18.743 35.8379 17.1092 35.8379 15.7271 35.1411L2.3227 28.2712C0.953778 27.5679 0.103516 26.2607 0.103516 24.8478V3.96564C0.103516 1.78619 2.0825 0.0185547 4.52276 0.0185547H31.3294C33.7718 0.0185547 35.7486 1.78619 35.7486 3.96564V24.8478C35.7486 26.2607 34.9026 27.5679 33.5295 28.2712ZM17.9261 12.7818C19.7042 12.7818 21.1456 11.3404 21.1456 9.56225C21.1456 7.78414 19.7042 6.34269 17.9261 6.34269C16.148 6.34269 14.7065 7.78414 14.7065 9.56225C14.7065 11.3404 16.148 12.7818 17.9261 12.7818Z" fill="#8144E5"/>
</svg>
